<svg xmlns="http://www.w3.org/2000/svg" xmlns:xlink="http://www.w3.org/1999/xlink" viewBox="0 0 267 70.55"><defs><style>.a{fill:none;}.b{clip-path:url(#a);}.c{fill:#00a551;}.d{fill:#fff;}</style><clipPath id="a" transform="translate(-378.5 -476.72)"><rect class="a" x="378.5" y="476.72" width="267" height="70.56"/></clipPath></defs><title>Bio-Rad Laboratories logo - Brandlogos.net</title><g class="b"><path class="c" d="M607.52,476.74c.27.37.27-.11,0,0,41.87.37,39.64,37.09,36.44,47-4.41,12.34-16,23.67-39.34,23.53H416.18c-19.56-.55-33-11.4-36-23.95-5-14.07.23-45.2,34.39-46.58h193Z" transform="translate(-378.5 -476.72)"/><path class="d" d="M495.79,499.45c4.18,7.55,1.37,17.25-3.86,23.47-5.95,7.55-16.82,9-25.11,7.05a12.6,12.6,0,0,1-9.09-9.7,26.33,26.33,0,0,1,8-22.59c5.4-5.18,13.43-6.19,20.81-4.81a15.22,15.22,0,0,1,9.22,6.57" transform="translate(-378.5 -476.72)"/><path class="d" d="M433.79,528.28c-2.85,1.28-5.07,1.65-10.17,1.71h-20.7l7.54-36h22.11c8.54,0,10.88,6.61,8.14,12a10.28,10.28,0,0,1-5.63,4.84s.05,0,0-.05c0,.17.11.1,0,0s0,.1,0,0c8.43,3.41,6,14.26-1.29,17.54" transform="translate(-378.5 -476.72)"/><polygon class="d" points="72.73 53.29 62.64 53.29 70.52 17.44 80.44 17.44 72.73 53.29"/><path class="d" d="M539.61,493.9c18-.28,12.95,16.94,2.95,19.71,0,.07,0,.05,0,0,5.94,1.85,5.45,10.15,5,16.41H535.94c.1-1.93,5.52-14.78-2.75-14.43h-8.11s-2,9.61-3.06,14.4h-9.86s3-14.37,3-14.4l-10.59,0,1.56-7.2h10.54L520,493.9h19.6" transform="translate(-378.5 -476.72)"/><path class="c" d="M427.44,500.66c6.95,0,4,7,.25,7.18-2.82,0-10.5,0-10.47,0l1.45-7.23s8.77,0,8.77,0" transform="translate(-378.5 -476.72)"/><path class="c" d="M485.26,502.46c3.65,3.5,1.22,10.94-1.2,15-2.66,4.12-5.55,5-6.86,5.36-4.06.76-6.64-.56-7.74-2.55-2-3.1-.67-12.43,3.46-16.61,2.86-3.47,9-4.35,12.34-1.21" transform="translate(-378.5 -476.72)"/><path class="c" d="M536.23,500.79c6.75.41,5.37,7.44.48,7.65.07.13-10.08,0-10.08,0l1.72-7.68h7.89" transform="translate(-378.5 -476.72)"/><path class="c" d="M424.59,514.43c9.13-.28,8.09,8.89.76,8.37H414s1.86-8.37,1.86-8.37Z" transform="translate(-378.5 -476.72)"/><path class="d" d="M584,529.92l7.65-35.84h18.8c9.09.62,12.45,6,13.55,11,1.51,8.21.09,24.53-20.57,24.88,0,0-.07,0,0,0Z" transform="translate(-378.5 -476.72)"/><path class="d" d="M585.87,529.92h-10s-1.39-6.06-1.47-6.12h-16.2c0,.07-3.72,6.13-3.72,6.23h-9.4l21.64-36s11.39,0,11.43,0,7.69,35.89,7.69,35.89" transform="translate(-378.5 -476.72)"/><path class="c" d="M606.62,500.72c10.88,0,10.6,22.38-5.38,22.59h-5.89l4.79-22.58s6.48,0,6.47,0" transform="translate(-378.5 -476.72)"/><polygon class="c" points="184.04 39.98 191.68 26.89 194.38 39.98 184.04 39.98"/></g></svg>