<?xml version="1.0" encoding="UTF-8" standalone="no"?>
<!-- Created with Inkscape (http://www.inkscape.org/) -->

<svg
   xmlns:dc="http://purl.org/dc/elements/1.1/"
   xmlns:cc="http://creativecommons.org/ns#"
   xmlns:rdf="http://www.w3.org/1999/02/22-rdf-syntax-ns#"
   xmlns:svg="http://www.w3.org/2000/svg"
   xmlns="http://www.w3.org/2000/svg"
   xmlns:sodipodi="http://sodipodi.sourceforge.net/DTD/sodipodi-0.dtd"
   xmlns:inkscape="http://www.inkscape.org/namespaces/inkscape"
   width="16.357244mm"
   height="8.5721455mm"
   viewBox="0 0 16.357244 8.5721455"
   version="1.1"
   id="svg5410"
   inkscape:version="0.92.0 r15299"
   sodipodi:docname="chugai.svg">
  <defs
     id="defs5404" />
  <sodipodi:namedview
     id="base"
     pagecolor="#ffffff"
     bordercolor="#666666"
     borderopacity="1.0"
     inkscape:pageopacity="0.0"
     inkscape:pageshadow="2"
     inkscape:zoom="4.5811896"
     inkscape:cx="97.900336"
     inkscape:cy="-22.568357"
     inkscape:document-units="mm"
     inkscape:current-layer="layer1"
     showgrid="false"
     fit-margin-top="0"
     fit-margin-left="0"
     fit-margin-right="0"
     fit-margin-bottom="0"
     inkscape:window-width="1280"
     inkscape:window-height="744"
     inkscape:window-x="-4"
     inkscape:window-y="-4"
     inkscape:window-maximized="1" />
  <metadata
     id="metadata5407">
    <rdf:RDF>
      <cc:Work
         rdf:about="">
        <dc:format>image/svg+xml</dc:format>
        <dc:type
           rdf:resource="http://purl.org/dc/dcmitype/StillImage" />
        <dc:title></dc:title>
      </cc:Work>
    </rdf:RDF>
  </metadata>
  <g
     inkscape:label="Layer 1"
     inkscape:groupmode="layer"
     id="layer1"
     transform="translate(-67.416615,-214.09488)">
    <path
       inkscape:connector-curvature="0"
       id="path440"
       style="fill:#ffffff;fill-opacity:1;fill-rule:nonzero;stroke:none;stroke-width:0.28222221"
       d="m 67.716653,222.36699 h 15.75717 v -7.97207 h -15.75717 z" />
    <path
       d="m 83.473823,214.39492 h -15.75717 v 7.97207 h 15.75717 z"
       style="fill:none;stroke:#ffffff;stroke-width:0.60007501;stroke-linecap:butt;stroke-linejoin:miter;stroke-miterlimit:4;stroke-dasharray:none;stroke-opacity:1"
       id="path444"
       inkscape:connector-curvature="0" />
    <path
       inkscape:connector-curvature="0"
       id="path448"
       style="fill:none;stroke:#ffffff;stroke-width:0.60007501;stroke-linecap:butt;stroke-linejoin:miter;stroke-miterlimit:4;stroke-dasharray:none;stroke-opacity:1"
       d="M 67.716653,214.39492 Z" />
    <path
       d="m 83.473823,214.39492 h -15.75717 v 7.97278 h 15.75717 z m -15.75717,0 z m 15.5702,7.78581 c -0.17815,0 -7.41927,0 -7.59883,0 0,-0.17992 0,-7.42104 0,-7.5999 0.17956,0 7.42068,0 7.59883,0 0,0.17886 0,7.41998 0,7.5999 z m -12.06959,-1.276 c -0.1471,0 -0.26881,-0.11995 -0.26881,-0.26847 0,-0.15945 -0.002,-2.60279 -0.002,-2.83562 0,-0.17251 0.13476,-0.31468 0.4893,-0.46214 0.12136,-0.0497 0.13229,-0.11995 0.0462,-0.19862 -0.0723,-0.0646 -0.0804,-0.10936 -0.0691,-0.25576 0.0106,-0.15346 0.10724,-1.49084 0.11959,-1.61537 0.01,-0.0995 0.0698,-0.15452 0.17039,-0.15452 0.1009,0 0.16087,0.055 0.1704,0.15452 0.0141,0.12453 0.10759,1.46191 0.11994,1.61537 0.0109,0.1464 0.004,0.19121 -0.0677,0.25576 -0.0879,0.0787 -0.078,0.14888 0.0448,0.19862 0.35419,0.14746 0.48895,0.28963 0.48895,0.46214 0,0.23283 -0.002,2.67617 -0.002,2.83562 0,0.14852 -0.11994,0.26847 -0.26882,0.26847 z m -0.50023,-0.27023 h -0.8562 l -1.18956,-2.09515 1.18956,-2.09409 h 1.35079 l -0.0268,0.36478 h -1.11125 l -0.98249,1.72931 0.98249,1.73073 h 0.64347 z m 4.01143,-2.09515 -1.18851,2.09515 h -0.85054 v -0.36442 h 0.63782 l 0.98284,-1.73073 -0.98284,-1.72931 h -1.10667 l -0.0261,-0.36478 h 1.34549 z m 7.70784,-0.87312 h 0.18979 v 1.42628 h -0.18979 z m 0.1898,0 z m -4.12362,0.004 v 1.42205 h -0.187681 v -0.63641 h -0.579259 v 0.63641 h -0.18874 v -1.42205 h 0.18874 v 0.5969 h 0.579259 v -0.5969 z m 0.45967,0 v 1.02694 c 0,0.061 0.0243,0.11924 0.0709,0.1651 0.0575,0.0564 0.13899,0.0903 0.22754,0.0903 0.16404,0 0.29563,-0.1143 0.29563,-0.25541 v -1.02694 h 0.18979 v 1.02694 c 0,0.11077 -0.0452,0.21696 -0.12559,0.2981 -0.0928,0.0924 -0.22366,0.14463 -0.35983,0.14463 -0.13759,0 -0.26988,-0.0522 -0.36125,-0.14463 -0.0801,-0.0811 -0.12664,-0.18733 -0.12664,-0.2981 v -1.02694 z m -1.79776,0.94792 h 0.17851 c 0,0.34431 -0.21837,0.5147 -0.51541,0.5147 -0.35031,0 -0.56974,-0.3422 -0.56974,-0.77682 0,-0.46108 0.26882,-0.72637 0.56974,-0.72637 0.32949,0 0.50835,0.23178 0.50835,0.47343 h -0.1838 c -0.0233,-0.18768 -0.13088,-0.29845 -0.3175,-0.29845 -0.18026,0 -0.38029,0.16545 -0.38029,0.55457 0,0.38029 0.16475,0.59831 0.38029,0.59831 0.16228,0 0.28893,-0.0836 0.32985,-0.33937 z m 3.36903,-0.81704 c -0.22719,0 -0.37712,0.24448 -0.37853,0.58844 -0.004,0.51505 0.37359,0.67239 0.6484,0.48436 v -0.36336 h -0.27622 v -0.18838 h 0.48507 v 0.61559 c -0.0885,0.12418 -0.25894,0.19509 -0.4512,0.19509 -0.34502,0 -0.60537,-0.27376 -0.60537,-0.73907 0,-0.47625 0.23495,-0.76412 0.56727,-0.76412 0.32737,0 0.48119,0.20814 0.48119,0.43709 h -0.1771 c -0.0286,-0.1471 -0.11889,-0.26564 -0.29351,-0.26564 z m 0.79869,1.29117 0.11359,-0.34643 h 0.49883 l 0.11289,0.34643 h 0.19756 l -0.45897,-1.42205 h -0.20073 l -0.46037,1.42205 z m 0.3616,-1.17687 0.19085,0.64312 h -0.37888 l 0.18803,-0.64312"
       style="fill:#0a50a1;fill-opacity:1;fill-rule:nonzero;stroke:none;stroke-width:0.35277778"
       id="path452"
       inkscape:connector-curvature="0" />
  </g>
</svg>
