<svg id="Layer_1" data-name="Layer 1" xmlns="http://www.w3.org/2000/svg" width="322" height="36.93" viewBox="0 0 322 36.93"><title>Devoted Health logo - Brandlogos.net</title><path d="M248.61,365.53a11.54,11.54,0,0,0-11.45,11.62v3h22.9v-3a11.54,11.54,0,0,0-11.45-11.62" transform="translate(-223 -365.53)" style="fill:#ff4f00"/><path d="M223,390.8a11.54,11.54,0,0,0,11.45,11.62h3V379.18h-3A11.54,11.54,0,0,0,223,390.8" transform="translate(-223 -365.53)" style="fill:#00a6e4"/><polygon points="14.16 36.89 37.06 36.89 37.06 13.65 14.16 13.65 14.16 36.89" style="fill:#530077"/><path d="M342.37,379.18h-2.8a1.67,1.67,0,0,0-1.67,1.13c-.36.82-5.1,13.62-5.1,13.62s-4.74-13.31-4.92-13.77a1.46,1.46,0,0,0-1.41-1h-3a1.42,1.42,0,0,0-1.28,2.06c.18.53,8,19.25,8,19.25a1.51,1.51,0,0,0,1.4.94h2.14a1.55,1.55,0,0,0,1.41-.94s7.76-18,8.37-19.3A1.33,1.33,0,0,0,342.37,379.18ZM381.65,400c-.06-.79-.11-1.11-.21-1.71-.18-1.13-.95-1.41-1.65-1.18a5.71,5.71,0,0,1-2.05.56,1.73,1.73,0,0,1-1.5-.66,5,5,0,0,1-.38-2.62l.08-9.82h4.25a1.36,1.36,0,0,0,1.41-1.46c0-.72,0-1.06,0-1.87a1.3,1.3,0,0,0-1.41-1.47H376l0-5.19c0-.7-.36-1.71-1.81-1.37-.79.18-1.56.36-2.32.61s-1.39.75-1.4,1.49,0,4.45,0,4.45h-2.14c-1.35,0-1.46.88-1.46,1.49s0,.8,0,1.76a1.35,1.35,0,0,0,1.52,1.55h2.05l-.08,9.78c0,2.31,0,4.49,1.41,6.15,1.12,1.28,3.12,1.93,5.44,1.93a6.09,6.09,0,0,0,3.7-.89A1.63,1.63,0,0,0,381.65,400Zm-74.24-14.2a5.5,5.5,0,0,1,4-1.82h0a4.82,4.82,0,0,1,3.71,1.54,5.56,5.56,0,0,1,1.32,3H306.08A4.6,4.6,0,0,1,307.41,385.78Zm11.71-3.37a9.8,9.8,0,0,0-7.55-3.23,10.42,10.42,0,0,0-8,3.32,12.26,12.26,0,0,0-3.1,8.24,11.67,11.67,0,0,0,3.24,8.46,11.37,11.37,0,0,0,8.21,3.22,12.62,12.62,0,0,0,8.37-2.88,1.77,1.77,0,0,0,.52-1.92,14,14,0,0,0-.88-1.77c-.37-.64-1.19-1.16-2.39-.27a8.74,8.74,0,0,1-5.51,2.08h0a5.92,5.92,0,0,1-4.53-1.7,6.33,6.33,0,0,1-1.67-3.28h14.38a1.55,1.55,0,0,0,1.52-1.27A11.3,11.3,0,0,0,319.12,382.41Zm42.29,8.41c0,3.75-2.47,6.79-6,6.79s-6-3-6-6.79,2.43-6.79,6.08-6.79S361.45,387.07,361.41,390.82Zm5.65,0a11.27,11.27,0,0,0-11.54-11.64,11.56,11.56,0,0,0-11.78,11.64,11.24,11.24,0,0,0,11.58,11.6A11.49,11.49,0,0,0,367.07,390.82Zm57.08,0c0,3.75-2.43,6.79-6.17,6.79-3.41,0-6-2.78-6-6.79,0-3.75,2.47-6.83,6.09-6.83S424.18,387.1,424.15,390.85Zm5.49,9.62c0-.85,0-27.77,0-28.94a1.26,1.26,0,0,0-1.51-1.4c-.42.1-2.42.59-3,.76a1.63,1.63,0,0,0-1.07,1.63c0,.38-.08,9.9-.08,9.9a8.45,8.45,0,0,0-6.7-3.2c-6.65,0-10.89,5.4-10.95,11.64s4.06,11.6,10.75,11.6a9.12,9.12,0,0,0,6.84-3.2s0,.49,0,1.39.42,1.44,1.34,1.44h2.81C429.26,402.07,429.63,401.45,429.63,400.47ZM389.4,385.78a5.5,5.5,0,0,1,4-1.82h0a4.82,4.82,0,0,1,3.71,1.54,5.56,5.56,0,0,1,1.32,3H388.07A4.6,4.6,0,0,1,389.4,385.78Zm11.71-3.37a9.8,9.8,0,0,0-7.54-3.23,10.42,10.42,0,0,0-8,3.32,12.26,12.26,0,0,0-3.09,8.24,11.67,11.67,0,0,0,3.24,8.46,11.37,11.37,0,0,0,8.21,3.22,12.63,12.63,0,0,0,8.37-2.88,1.77,1.77,0,0,0,.52-1.92,13.94,13.94,0,0,0-.88-1.77c-.37-.65-1.19-1.16-2.39-.27a8.75,8.75,0,0,1-5.51,2.08h0a5.93,5.93,0,0,1-4.53-1.7,6.34,6.34,0,0,1-1.67-3.28h14.38a1.55,1.55,0,0,0,1.52-1.27A11.3,11.3,0,0,0,401.11,382.41ZM288.38,395c-2.42,1.82-6.43,1.83-8.15,1.83H277V375.7h3.27c2.5,0,5.1.16,7.14,1.31,4.24,2.39,4.84,6.84,4.82,9.29C292.15,390.34,290.94,393.12,288.38,395Zm1.6-23c-2.55-1.39-5.44-1.93-10.34-1.93h-6.46a1.77,1.77,0,0,0-1.73,1.82v28.72a1.77,1.77,0,0,0,1.73,1.82h6.9c2.17,0,7.27,0,11.26-2.77s6.37-7.6,6.42-13.4C297.78,384,297.28,376,290,372Zm218.09-1.93-1.53.31a.36.36,0,0,0-.3.36c0,.1,0,30.29,0,30.29a.29.29,0,0,0,.29.32h1.58a.29.29,0,0,0,.28-.31s0-30.62,0-30.71A.27.27,0,0,0,508.08,370.11Zm-22,25.48c0,3.21,2.79,4.84,5.64,4.84a8.63,8.63,0,0,0,7.3-4.39l0-5.43a33.47,33.47,0,0,0-7.07-.07C487.58,391,486.14,393.41,486.12,395.59Zm-.37-13.83a15.44,15.44,0,0,1,7-1.82c6.92,0,8.57,4.76,8.55,8,0,0-.05,6.12-.06,7.66,0,1.34.05,5,.07,5.89a.3.3,0,0,1-.3.32h-1.25a.27.27,0,0,1-.27-.28c0-.08-.24-3-.24-3a9.43,9.43,0,0,1-7.84,3.69c-4.3,0-7.54-2.91-7.51-6.8s2.66-6.17,7.82-6.8a37.13,37.13,0,0,1,7.42.08v-.93c0-3-1.94-6-6.66-6a12,12,0,0,0-6.18,1.93.23.23,0,0,1-.37-.1c0-.11-.32-1.28-.36-1.47A.38.38,0,0,1,485.74,381.75Zm-15,0a6.64,6.64,0,0,1,5.17,2.25,8.41,8.41,0,0,1,2,5.79H463a9.67,9.67,0,0,1,2.15-5.41A7.36,7.36,0,0,1,470.71,381.79Zm6.86,1.19a8.7,8.7,0,0,0-6.73-3,9.14,9.14,0,0,0-7.19,3.26,12.14,12.14,0,0,0-2.87,8,11.48,11.48,0,0,0,3,8.17,10,10,0,0,0,7.52,2.94,12.27,12.27,0,0,0,7.93-3,.33.33,0,0,0,.08-.38l-.63-1.39a.23.23,0,0,0-.38,0,10.32,10.32,0,0,1-6.91,3,7.82,7.82,0,0,1-6-2.41,9.22,9.22,0,0,1-2.39-6.37h16.64a.42.42,0,0,0,.47-.34A11,11,0,0,0,477.57,383Z" transform="translate(-223 -365.53)" style="fill:#202322"/><path d="M523.46,399.36A4.69,4.69,0,0,1,521,400a3,3,0,0,1-2.5-1.07c-.72-.93-.71-2.34-.69-4.48V382h5.9a.26.26,0,0,0,.25-.27c0-.16,0-1.28,0-1.36a.25.25,0,0,0-.26-.25h-5.9s0-6.68,0-6.77a.24.24,0,0,0-.3-.25l-1.58.32a.36.36,0,0,0-.29.36c0,.11,0,6.33,0,6.33H512a.27.27,0,0,0-.28.26c0,.09,0,1.22,0,1.38a.23.23,0,0,0,.24.24h3.65v12.6c0,2.42,0,4.33,1.1,5.68a5.07,5.07,0,0,0,4.14,1.57,6.51,6.51,0,0,0,3-.62.38.38,0,0,0,.2-.41c0-.14-.18-1.11-.21-1.29a.23.23,0,0,0-.37-.16m6-12s0,13.58,0,13.72a.29.29,0,0,1-.31.31H527.6a.27.27,0,0,1-.26-.3c0-.13,0-30.21,0-30.31a.48.48,0,0,1,.33-.37l1.51-.47a.24.24,0,0,1,.31.23c0,.1,0,13.6,0,13.6a8.71,8.71,0,0,1,7.69-4.25,7.79,7.79,0,0,1,6.22,2.63c1.45,1.82,1.63,4.07,1.6,7,0,0,0,11.76,0,11.89a.3.3,0,0,1-.3.31h-1.57a.3.3,0,0,1-.29-.31c0-.11,0-11.85,0-11.85,0-3.08-.27-4.55-1.36-5.92a5.62,5.62,0,0,0-4.37-1.93c-6,0-7.62,6-7.62,6" transform="translate(-223 -365.53)" style="fill:#202322"/><path d="M457.38,370.36a.27.27,0,0,0-.33-.26c-.14,0-1.36.41-1.54.45a.36.36,0,0,0-.29.36c0,.1,0,13.11,0,13.11H436.85s0-13.53,0-13.57a.27.27,0,0,0-.33-.26c-.14,0-1.36.41-1.54.45a.36.36,0,0,0-.29.36c0,.1,0,30.29,0,30.29a.29.29,0,0,0,.3.32h1.58a.29.29,0,0,0,.28-.31v-15h18.37v15a.29.29,0,0,0,.3.32h1.58a.29.29,0,0,0,.28-.31Z" transform="translate(-223 -365.53)" style="fill:#202322"/></svg>