<svg xmlns="http://www.w3.org/2000/svg" viewBox="0 0 222.3 144.96"><title>Dove logo</title><path d="M406.81,452.34c-4.72,5.49-6.48,10.4-5.83,15.77a21.56,21.56,0,0,0,1.86,7.17c3.77,5.48,2.1.24,2.07-5.07,0-9.21,6.63-19.82,17.07-24.17a49.68,49.68,0,0,1,27.54-3c8.72,1.63,17,5.42,21.88,11.93,3.92,5.2,7.06,11.22,7.38,22.27,0,.47,0,1.07,0,2.2a40.52,40.52,0,0,1-6.6,22c-6.67,10-20.71,16.79-36.95,16.79-5.71,0-11.83-.79-16.16-1-.85,0-1-.72-.45-1.11,11-7.07,13.82-22.36,19.62-35.53,1.65-4,4.27-12.45,5.54-15.11,7.73-16.12,13.89-17,11.92-17.25-3.37-.41-8.87.12-15.11,6-3.65,3.41-7.87,11.88-10.58,18.47-4.71,11.53-8.07,22.43-11.25,28.55-2.47,4.94-4.41,9.22-6.89,11.92-3.24,3.53-4.52,4-4.52,4a1.89,1.89,0,0,0-1.29.47,1.57,1.57,0,0,0-.47,1.18,2,2,0,0,0,.47,1.41,1.84,1.84,0,0,0,1.18.35c.12,0,26,.82,32.25.23,18.95-1.78,30.36-6.73,39.3-15.67,8.36-8.12,10.34-18.35,10.34-25.41,0-10.24-2.47-18.77-9.53-25.83-8.12-8.12-16.37-12.67-29.2-14.09A79.61,79.61,0,0,0,427,441.06C417.68,443,410.54,448,406.81,452.34Z" transform="translate(-400.85 -439.52)" style="fill:#224271;fill-rule:evenodd"/><path d="M522.52,468.08h.12c-14.93,0-27.77,11.47-31.55,25.85-2,7.72-2.1,15.88,2,20.94,3.34,4.22,7.62,5.92,13.24,5.92,15.61,0,28-11.78,31.82-26.15,2-7.84,1.83-15.75-2.25-20.94-3.34-4.1-7.62-5.54-13.37-5.63Zm-19.08,49.28h0c-1.59-.74-3.53-4.53-3.78-7.81-.47-6.07-.46-14,3.86-22.42,6-11.84,15.89-19.43,22.84-15.28,1.41.84,2.18,2.14,2.86,4.2,2.35,7.14.42,19.4-4.7,28.47-6.63,11.75-15.43,15.79-21.08,12.85Z" transform="translate(-400.85 -439.52)" style="fill:#224271;fill-rule:evenodd"/><path d="M610.95,467.82c-9.38.33-23,6.75-30.34,25.11-3.88,9.77-2.65,17.37-.42,21.14,3.18,5.18,7,6.55,10.92,6.75,18.31,1,26.29-13.76,26.65-14.35s.76-1.47-.18-2.06-1.48.49-1.83,1.07c-4.07,6.71-13.19,11.8-19.81,11.67-4.59-.12-7.1-3-8.15-9.28a32.56,32.56,0,0,1,.9-11.06c3.88.24,22.85-1.84,31.46-12,2.79-3.29,3.88-8.51,2.21-11.87s-7.33-5.19-11.41-5.12ZM607,471a7.9,7.9,0,0,1,6.44.36c3.17,1.83,3.43,7.31-1.15,13.19-6.12,7.65-19.46,10.21-22.64,10,4.94-13.42,12.64-22,17.35-23.52Z" transform="translate(-400.85 -439.52)" style="fill:#224271;fill-rule:evenodd"/><path d="M480.65,555.22a47.15,47.15,0,0,0,23.43-5.45c12.18-6.38,20.53-11,26.44-4.18s-2.09,12.76-1,13.57,2.44-.58,3.25-1.28,5.62-6.68,9.63-8.12c6.15-2.2,8.23.46,9.74,1.39s2.78,1.74,2.78,2.09-2.57.89-4.41,2.55c-3.6,3.25-10.67,21.69-23.54,26.56s-28.65,2.55-58.34-19.83c23.78,5.45,25.05,3.83,29,3.83s14.15-.93,13.22-2.78S496.78,567.74,480.65,555.22Z" transform="translate(-400.85 -439.52)" style="fill:#d4a480;fill-rule:evenodd"/><path d="M541.33,469.52c-1.41.83,3.83,2.56,4.39,12.14a156.87,156.87,0,0,1,.32,16c-.24,4.55-1.44,18.05-1.2,19.57s1,3.6,3,3.44,14.62-6.63,24.84-23.88,12.56-28.52,7.91-28.52c-3.76,0-2.24,2.24-2.88,5.59-1.1,5.77-3.42,14.16-7.91,21-4.71,7.19-12.46,17.81-14.62,17.17s2.64-28.6-1.36-36.67C550.11,467.9,543.09,468.48,541.33,469.52Z" transform="translate(-400.85 -439.52)" style="fill:#224271;fill-rule:evenodd"/></svg>