<svg id="Layer_1" data-name="Layer 1" xmlns="http://www.w3.org/2000/svg" viewBox="0 0 660 61.41"><title>Johnson &amp;amp; Johnson logo - Brandlogos.net</title><path d="M119.27,409.58c-6.46,0-10.07-6.12-10.07-17.2,0-11.25,3.61-17.2,10.07-17.2s10.07,6,10.07,17.2-3.62,17.2-10.07,17.2m0-39c-13.17,0-20.47,9.82-20.47,21.81s7.3,21.81,20.47,21.81,20.47-9.82,20.47-21.81-7.3-21.82-20.47-21.82m91.53,0c-6.22,0-9.65,2.69-11.58,6.12h-.5v-5.28h-9.9v41.95h9.9V386.27c0-6.2,3.19-9.82,8.31-9.82,5,0,7.13,3.27,7.13,8.23v28.69H224V384.58c0-8.64-4.52-14-13.25-14m35.73,0c-9.14,0-16,3.86-16,12.08,0,7,4.78,10.75,10.15,12.08l8.38,2.1c4.45,1.08,6.47,2.69,6.47,6.21,0,4.28-3,6.71-8.31,6.71-5.71,0-8.64-2.76-9.57-9.72l-8.89,2.52c.5,7.22,7.22,11.66,17.37,11.66,11.33,0,17.45-5.29,17.45-13.67,0-7.88-5.46-11.16-11.16-12.59l-8.06-2c-4-1-5.79-2.85-5.79-5.54,0-3.35,2.85-5.37,7.13-5.37,5,0,8.13,2.77,8.56,8.06l8.39-2.51c-1-5.9-6.8-10-16.12-10m41.62,39c-6.47,0-10.07-6.12-10.07-17.2,0-11.25,3.6-17.2,10.07-17.2s10.07,6,10.07,17.2-3.62,17.2-10.07,17.2m0-39c-13.17,0-20.47,9.82-20.47,21.81s7.3,21.81,20.47,21.81,20.47-9.82,20.47-21.81-7.3-21.82-20.47-21.82m48.33,0c-6.21,0-9.65,2.69-11.58,6.12h-.5v-5.28h-9.9v41.95h9.9V386.27c0-6.2,3.19-9.82,8.31-9.82,5,0,7.13,3.27,7.13,8.23v28.69h9.9V384.58c0-8.64-4.53-14-13.25-14m147.07,39c-6.46,0-10.07-6.12-10.07-17.2,0-11.25,3.61-17.2,10.07-17.2s10.07,6,10.07,17.2-3.62,17.2-10.07,17.2m0-39c-13.17,0-20.47,9.82-20.47,21.81s7.3,21.81,20.47,21.81S504,404.37,504,392.39s-7.3-21.82-20.47-21.82m91.53,0c-6.22,0-9.65,2.69-11.58,6.12H563v-5.28h-9.9v41.95H563V386.27c0-6.2,3.19-9.82,8.31-9.82,5,0,7.13,3.27,7.13,8.23v28.69h9.9V384.58c0-8.64-4.52-14-13.25-14m35.75,0c-9.14,0-16,3.86-16,12.08,0,7,4.78,10.75,10.15,12.08l8.39,2.1c4.45,1.08,6.46,2.69,6.46,6.21,0,4.28-3,6.71-8.31,6.71-5.71,0-8.64-2.76-9.57-9.72L593,402.56c.5,7.22,7.22,11.66,17.38,11.66,11.32,0,17.45-5.29,17.45-13.67,0-7.88-5.46-11.16-11.15-12.59l-8.06-2c-4-1-5.79-2.85-5.79-5.54,0-3.35,2.85-5.37,7.13-5.37,5,0,8.13,2.77,8.56,8.06l8.39-2.51c-1-5.9-6.81-10-16.11-10m41.61,39c-6.47,0-10.07-6.12-10.07-17.2,0-11.25,3.6-17.2,10.07-17.2s10.07,6,10.07,17.2-3.62,17.2-10.07,17.2m0-39c-13.17,0-20.47,9.82-20.47,21.81s7.3,21.81,20.47,21.81,20.47-9.82,20.47-21.81-7.3-21.82-20.47-21.82m48.33,0c-6.21,0-9.65,2.69-11.58,6.12h-.5v-5.28h-9.9v41.95h9.9V386.27c0-6.2,3.19-9.82,8.31-9.82,5,0,7.13,3.27,7.13,8.23v28.69H714V384.58c0-8.64-4.53-14-13.25-14M92.93,354.63H82.53V398c0,7-2.69,11.23-9.06,11.23s-9.06-4.45-9.06-12.08V389.1L54,391.7v3.6c0,11,5.46,19.38,19.46,19.38s19.47-8.39,19.47-19.38V354.63m62.58,0h-9.9v58.73h9.9v-27.1c0-6.2,3.19-9.82,8.31-9.82,5,0,7.13,3.27,7.13,8.23v28.69h9.9V384.58c0-8.64-4.53-14-13.25-14-6.21,0-9.64,2.69-11.58,6.12h-.5V354.63m301.69,0H446.8V398c0,7-2.69,11.23-9.06,11.23s-9.06-4.45-9.06-12.08V389.1l-10.4,2.6v3.6c0,11,5.46,19.38,19.46,19.38s19.47-8.39,19.47-19.38V354.63m62.58,0h-9.9v58.73h9.9v-27.1c0-6.2,3.19-9.82,8.31-9.82,5,0,7.13,3.27,7.13,8.23v28.69h9.9V384.58c0-8.64-4.53-14-13.25-14-6.21,0-9.64,2.69-11.58,6.12h-.5V354.63M382.36,408.58c-8.06,0-13-6.54-13-13.5a13,13,0,0,1,5.12-10.65l19,20.72a22.52,22.52,0,0,1-11.08,3.43m18.46-10.32-16.44-18.13a22.05,22.05,0,0,1,8.13-1.59c6.8,0,11,3.95,11,10.75a16.34,16.34,0,0,1-2.68,9M382.11,377.7l-3.61-4c-3.19-3.52-4.11-5.71-4.11-8.31,0-4.86,3.1-7.63,8-7.63s7.88,2.85,7.88,8.06c0,4.78-2.35,9.31-8.13,11.91m.5-24.41c-11.58,0-17.28,6.47-17.28,14.51,0,4.36,1.84,8.73,6.72,14l.08.18c-8.21,3.95-12,10.32-12,16.87,0,8.64,6.63,15.86,16.87,15.86,5.87,0,12.75-2.44,19-6.8l5,5.46h13.17v-.42l-10.73-11.83c4.53-5.37,7.13-11.24,7.13-16.37,0-6.37-4.28-10.65-11-10.65a30.15,30.15,0,0,0-10.07,2l-.18-.33c6.38-3.44,9.06-6.63,9.06-11.08,0-6.37-5.72-11.41-15.79-11.41" transform="translate(-54 -353.29)" style="fill:#eb1700"/></svg>