<svg id="Layer_1" data-name="Layer 1" xmlns="http://www.w3.org/2000/svg" xmlns:xlink="http://www.w3.org/1999/xlink" viewBox="0 0 112.86 36"><defs><clipPath id="clip-path" transform="translate(-46.07 -239.99)"><rect x="46" y="240" width="113" height="36" style="fill:none"/></clipPath><linearGradient id="linear-gradient" x1="66.83" y1="529.36" x2="66.83" y2="493.4" gradientTransform="matrix(1, 0, 0, -1, 0, 769.35)" gradientUnits="userSpaceOnUse"><stop offset="0.14" stop-color="#510d77"/><stop offset="0.24" stop-color="#650d6c" stop-opacity="0.97"/><stop offset="0.74" stop-color="#c40d3c" stop-opacity="0.8"/></linearGradient></defs><title>Vhi Healthcare logo - Brandlogos.net</title><g style="clip-path:url(#clip-path)"><path d="M53.74,250.81a2.67,2.67,0,0,1-.24-1.38,3.75,3.75,0,0,1,.84-2l.19-.27.34-.49c.13-.2.27-.39.4-.59a1.13,1.13,0,0,1,.3-.34c.2-.13.41,0,.56.06l1,.44.24.11.36.16a3.54,3.54,0,0,1,1.79,1.36,2.57,2.57,0,0,1,.41,1.16,1.61,1.61,0,0,1-.1.65,1.47,1.47,0,0,1-.69.79l-.29.14a.43.43,0,0,0-.14.06,1.93,1.93,0,0,1-1.26-.06,2.8,2.8,0,0,1-.36-.19.26.26,0,0,0-.16,0c-.07,0-.13.17-.16.24a2,2,0,0,1-.29.4,1.8,1.8,0,0,1-.53.39,2,2,0,0,1-1.27.14,2.78,2.78,0,0,1-.31-.11l-.13-.09A1.62,1.62,0,0,1,53.74,250.81Zm8.56,16.58,0-.26L62,266c0-.14,0-.39-.27-.49a1,1,0,0,0-.46,0H59.66a3.66,3.66,0,0,0-2.11.43,2.6,2.6,0,0,0-1,1,1.49,1.49,0,0,0-.17.77.64.64,0,0,0,0,.16,1.41,1.41,0,0,0,.09.33,2.09,2.09,0,0,0,.84,1,2,2,0,0,0,.63.22,1.46,1.46,0,0,0,.5,0c.07,0,.23,0,.29,0a.17.17,0,0,1,.06.14,3.83,3.83,0,0,0,0,.4A1.94,1.94,0,0,0,59.5,271l.13.09a3.12,3.12,0,0,0,.29.16,1.49,1.49,0,0,0,1,.11,1.71,1.71,0,0,0,.59-.29,2.55,2.55,0,0,0,.73-1,3.61,3.61,0,0,0,.11-2.27A3.79,3.79,0,0,1,62.3,267.39ZM70,270.16l-.13-.13a1.78,1.78,0,0,0-.31-.23,2.33,2.33,0,0,0-1.44-.23,2.3,2.3,0,0,0-.7.27,2,2,0,0,0-.44.34c-.06.07-.17.2-.26.22a.24.24,0,0,1-.16-.09,2.38,2.38,0,0,0-.33-.33,2.18,2.18,0,0,0-1.37-.46H64.7a1.94,1.94,0,0,0-.36.07,1.7,1.7,0,0,0-1,.66A2,2,0,0,0,63,271a2.94,2.94,0,0,0,.09,1.42,4.09,4.09,0,0,0,1.54,2.07l.34.29.23.2,1,.82c.13.1.33.3.59.23a1.57,1.57,0,0,0,.44-.29l.63-.52.53-.43.3-.24a4.28,4.28,0,0,0,1.54-1.92,2.87,2.87,0,0,0,.16-1.58A1.72,1.72,0,0,0,70,270.16Zm-13-5.79a.24.24,0,0,1,.2,0,2.14,2.14,0,0,0,.49.23,2.59,2.59,0,0,0,1.69,0,1.07,1.07,0,0,0,.19-.09,3.11,3.11,0,0,0,.39-.22,2,2,0,0,0,.87-1.1,2.18,2.18,0,0,0,.09-.87,3.36,3.36,0,0,0-.63-1.53,4.71,4.71,0,0,0-2.47-1.71,4.89,4.89,0,0,0-.49-.19L57,258.8l-1.4-.53a.79.79,0,0,0-.74,0,1.35,1.35,0,0,0-.37.49c-.17.27-.34.53-.5.8l-.43.67-.23.39a5,5,0,0,0-1,2.7,3.49,3.49,0,0,0,.41,1.82,2,2,0,0,0,.76.75l.19.1a2.12,2.12,0,0,0,.43.13,2.8,2.8,0,0,0,1.69-.27,2.54,2.54,0,0,0,.67-.56,2.24,2.24,0,0,0,.36-.55C56.86,264.6,56.93,264.41,57,264.37Zm8.1,4.66a1.6,1.6,0,0,0,.81,0l.16,0,.31-.14a2.14,2.14,0,0,0,.81-1,2.2,2.2,0,0,0,.1-.67,1.55,1.55,0,0,0-.09-.5c0-.07-.09-.23-.06-.29s.1-.07.14-.09.27-.06.4-.11a1.94,1.94,0,0,0,1-.89,1.36,1.36,0,0,0,.07-.14,1.13,1.13,0,0,0,.1-.32,1.53,1.53,0,0,0-.09-1.08,1.63,1.63,0,0,0-.4-.55,2.67,2.67,0,0,0-1.16-.55,3.66,3.66,0,0,0-2.3.33l-.37.14-.26.1-1.07.44c-.14.06-.39.13-.44.37a1.05,1.05,0,0,0,0,.47l.13.72c0,.2.07.4.1.6s0,.23.07.34a3.87,3.87,0,0,0,.84,2.05A2.72,2.72,0,0,0,65.11,269Zm9.79-1.69,0-.26c-.06-.37-.13-.75-.19-1.12,0-.14,0-.39-.26-.5a1.32,1.32,0,0,0-.46-.07l-.71,0-.6,0H72.3a3.7,3.7,0,0,0-2.13.36,2.68,2.68,0,0,0-1,.95,1.58,1.58,0,0,0-.2.77v.16a1.37,1.37,0,0,0,.07.33,2.06,2.06,0,0,0,.81,1,2,2,0,0,0,.61.23,1.85,1.85,0,0,0,.49,0,.48.48,0,0,1,.29,0,.23.23,0,0,1,.06.14,3.79,3.79,0,0,0,0,.4,2,2,0,0,0,.63,1.1l.13.1a2.07,2.07,0,0,0,.27.17,1.5,1.5,0,0,0,1,.16A1.7,1.7,0,0,0,74,271a2.46,2.46,0,0,0,.76-1,3.61,3.61,0,0,0,.19-2.27A1.18,1.18,0,0,0,74.9,267.34Zm-22.2-11.9a1.21,1.21,0,0,0,.06.17,2.64,2.64,0,0,0,.19.34,2.34,2.34,0,0,0,1.24.83,2.8,2.8,0,0,0,.77.06,1.85,1.85,0,0,0,.56-.13c.09,0,.24-.11.33-.09a.22.22,0,0,1,.11.14,2.84,2.84,0,0,0,.17.44,2.3,2.3,0,0,0,1.09,1l.17.06.37.1a1.78,1.78,0,0,0,1.79-.69,2.86,2.86,0,0,0,.51-1.36,4.19,4.19,0,0,0-.56-2.58c-.06-.14-.13-.27-.2-.42l-.13-.29-.59-1.19c-.09-.16-.17-.42-.46-.47a1.28,1.28,0,0,0-.53.09l-.8.22-.67.17-.37.1a4.46,4.46,0,0,0-2.26,1.13,3.12,3.12,0,0,0-.83,1.41A1.75,1.75,0,0,0,52.7,255.43Zm29.53,6.48a3,3,0,0,0-1.1-1.06,4.3,4.3,0,0,0-2.73-.53h-.81l-1.39.07c-.19,0-.49,0-.64.24a1.54,1.54,0,0,0-.14.56l-.13.87c0,.24-.09.49-.11.73s0,.27-.06.42a4.69,4.69,0,0,0,.14,2.65,3.21,3.21,0,0,0,1,1.39,1.87,1.87,0,0,0,.91.34h.19a2.14,2.14,0,0,0,.41,0,2.51,2.51,0,0,0,1.33-.86,2.45,2.45,0,0,0,.37-.72,2.13,2.13,0,0,0,.1-.6.73.73,0,0,1,.06-.36.24.24,0,0,1,.19,0,1.94,1.94,0,0,0,.5,0,2.33,2.33,0,0,0,1.43-.63l.13-.14a2.09,2.09,0,0,0,.24-.32,1.86,1.86,0,0,0,.33-1.26A1.68,1.68,0,0,0,82.23,261.92ZM78.11,257a2.6,2.6,0,0,0,.47,0,2.16,2.16,0,0,0,1.3-.69,1.24,1.24,0,0,0,.11-.14,3.1,3.1,0,0,0,.21-.32,1.84,1.84,0,0,0,.23-1.2,1.94,1.94,0,0,0-.27-.7,2.93,2.93,0,0,0-1.1-.93,4.15,4.15,0,0,0-2.6-.32l-.44,0-.3,0-1.3.16c-.17,0-.46,0-.59.27a1.74,1.74,0,0,0-.1.53c0,.27,0,.55-.07.82s0,.46-.07.69,0,.26,0,.39a4.4,4.4,0,0,0,.31,2.48,3,3,0,0,0,1,1.23,2,2,0,0,0,.89.27H76a1.82,1.82,0,0,0,.39-.07,2.32,2.32,0,0,0,1.19-.9,2.55,2.55,0,0,0,.3-.7,1.91,1.91,0,0,0,.06-.57c0-.09,0-.27,0-.33A.53.53,0,0,1,78.11,257Zm7.39.85c0-.2,0-.4-.06-.6l0-.33a3.75,3.75,0,0,0-.69-2.05,2.67,2.67,0,0,0-1.09-.87,1.44,1.44,0,0,0-.79-.07.74.74,0,0,0-.16,0,1.45,1.45,0,0,0-.31.13,2,2,0,0,0-.86,1,1.73,1.73,0,0,0-.13.65,1.38,1.38,0,0,0,0,.49c0,.07.07.23,0,.29a.16.16,0,0,1-.14.07,4,4,0,0,0-.4.09,1.83,1.83,0,0,0-1,.8,1.32,1.32,0,0,0-.07.14l-.13.3a1.5,1.5,0,0,0,0,1.06,1.69,1.69,0,0,0,.36.56,2.5,2.5,0,0,0,1.09.6,3.49,3.49,0,0,0,2.26-.17l.37-.11.26-.07,1.07-.36c.14,0,.39-.1.46-.33a1.23,1.23,0,0,0,0-.46C85.56,258.36,85.53,258.13,85.5,257.89Zm1.73-10a3.07,3.07,0,0,0-1.06-1.23,1.8,1.8,0,0,0-.89-.26H85.1a1.83,1.83,0,0,0-.39.07,2.38,2.38,0,0,0-1.19.9,2.54,2.54,0,0,0-.3.7,1.91,1.91,0,0,0-.06.57c0,.09,0,.27,0,.33a.21.21,0,0,1-.17.06,2.59,2.59,0,0,0-.47,0,2.23,2.23,0,0,0-1.3.69,1.26,1.26,0,0,0-.11.14,1.63,1.63,0,0,0-.2.32,1.74,1.74,0,0,0-.21,1.2,2,2,0,0,0,.29.7,2.89,2.89,0,0,0,1.1.92,4,4,0,0,0,2.6.3l.44,0,.3,0,1.3-.17c.17,0,.46,0,.59-.27a1.38,1.38,0,0,0,.09-.53c0-.27,0-.55.06-.82s0-.46.06-.69,0-.26,0-.39A4.07,4.07,0,0,0,87.23,247.93ZM71.94,244a1.64,1.64,0,0,0,.46.2.58.58,0,0,1,.27.11.2.2,0,0,1,0,.16,2,2,0,0,0-.11.39,2,2,0,0,0,.21,1.26l.09.13.2.26a1.5,1.5,0,0,0,.93.5,1.73,1.73,0,0,0,.66,0,2.56,2.56,0,0,0,1.06-.66,3.58,3.58,0,0,0,.94-2.07l.09-.39c0-.09,0-.17.06-.26l.21-1.12a.58.58,0,0,0-.07-.56,1.15,1.15,0,0,0-.41-.22l-.66-.27-.56-.24-.31-.13a3.81,3.81,0,0,0-2.13-.4,2.63,2.63,0,0,0-1.29.53,1.78,1.78,0,0,0-.46.66l0,.14a1.31,1.31,0,0,0,0,.33,2,2,0,0,0,.43,1.22A1.24,1.24,0,0,0,71.94,244Zm4.29,2.55-.57.47-.49.39-.27.23a4,4,0,0,0-1.41,1.76,2.73,2.73,0,0,0-.14,1.46,1.57,1.57,0,0,0,.39.75.43.43,0,0,0,.11.11,1.28,1.28,0,0,0,.29.2,2.2,2.2,0,0,0,1.33.22,2.48,2.48,0,0,0,.64-.24,1.77,1.77,0,0,0,.4-.32c.06-.06.16-.19.23-.19a.21.21,0,0,1,.14.09,3,3,0,0,0,.3.3,2,2,0,0,0,1.26.42h.16a1.71,1.71,0,0,0,.33-.06,1.6,1.6,0,0,0,.91-.6,1.7,1.7,0,0,0,.29-.63A2.65,2.65,0,0,0,80,249.6a3.76,3.76,0,0,0-1.43-1.89l-.31-.26-.21-.19-.91-.75a.64.64,0,0,0-.54-.22A1.22,1.22,0,0,0,76.23,246.55Zm-8.57,8.82a3.78,3.78,0,0,0,1.1,1.89,2.5,2.5,0,0,0,1.26.63,1.62,1.62,0,0,0,.8-.09l.14-.06.29-.19a2,2,0,0,0,.64-1.13,2,2,0,0,0,0-.66,1.81,1.81,0,0,0-.14-.47c0-.07-.11-.22-.1-.27s.09-.09.13-.1a2.94,2.94,0,0,0,.37-.17,1.92,1.92,0,0,0,.81-1l0-.14a1.6,1.6,0,0,0,.06-.33,1.53,1.53,0,0,0-.23-1,1.79,1.79,0,0,0-.46-.47,2.6,2.6,0,0,0-1.2-.37A3.61,3.61,0,0,0,69,252l-.34.19-.23.13-1,.57c-.13.07-.36.17-.37.42a1.2,1.2,0,0,0,.1.46c.07.23.16.46.23.69l.19.57A.87.87,0,0,0,67.66,255.38Zm2.33,7.3a1.9,1.9,0,0,0,.3,1.23l.09.13a2,2,0,0,0,.21.24,1.54,1.54,0,0,0,1,.43,1.66,1.66,0,0,0,.64-.09,2.52,2.52,0,0,0,1-.73,3.66,3.66,0,0,0,.8-2.12,3.61,3.61,0,0,1,.06-.39l0-.26c0-.37.09-.75.13-1.13,0-.14.07-.39-.1-.54a1,1,0,0,0-.43-.19c-.23-.07-.46-.14-.67-.23l-.57-.2-.31-.1a3.74,3.74,0,0,0-2.14-.24,2.57,2.57,0,0,0-1.24.63,1.53,1.53,0,0,0-.4.69,1.17,1.17,0,0,0,0,.16,1.28,1.28,0,0,0,0,.33,2.08,2.08,0,0,0,.51,1.19,2.35,2.35,0,0,0,.53.4,1.41,1.41,0,0,0,.47.16c.07,0,.23,0,.27.09s0,.11,0,.16A1.94,1.94,0,0,0,70,262.68Zm-16.8-3.76a1.67,1.67,0,0,1,.06-.26c.07-.37.13-.75.2-1.12a.58.58,0,0,0-.07-.56,1.15,1.15,0,0,0-.41-.22l-.66-.26-.56-.23-.31-.11a3.71,3.71,0,0,0-2.13-.37,2.53,2.53,0,0,0-1.29.55,1.65,1.65,0,0,0-.44.66,1.17,1.17,0,0,0,0,.16,1.31,1.31,0,0,0,0,.33,2,2,0,0,0,.43,1.22,2.34,2.34,0,0,0,.5.43,1.28,1.28,0,0,0,.46.19c.07,0,.23,0,.27.1a.2.2,0,0,1,0,.16A4,4,0,0,0,49,260a2,2,0,0,0,.23,1.25l.09.13.2.26a1.45,1.45,0,0,0,.93.49,1.74,1.74,0,0,0,.66,0,2.44,2.44,0,0,0,1-.67,3.66,3.66,0,0,0,.93-2.07Zm-5.66-12.15a2.88,2.88,0,0,0,1.07.93,4.08,4.08,0,0,0,2.54.34l.44,0,.3,0,1.27-.14c.17,0,.44,0,.57-.26a1.33,1.33,0,0,0,.1-.52c0-.27.06-.55.07-.8s0-.46.07-.67,0-.26,0-.39a4.36,4.36,0,0,0-.27-2.44,2.91,2.91,0,0,0-1-1.22,1.76,1.76,0,0,0-.86-.27h-.19l-.37.06a2.36,2.36,0,0,0-1.17.86,2.46,2.46,0,0,0-.3.69,1.82,1.82,0,0,0-.06.56.84.84,0,0,1,0,.33.21.21,0,0,1-.17.06,2.44,2.44,0,0,0-.46,0,2.2,2.2,0,0,0-1.29.65l-.11.13c-.1.13-.14.2-.21.3a1.75,1.75,0,0,0-.24,1.18A2.56,2.56,0,0,0,47.53,246.77Zm18,1.59a1.5,1.5,0,0,0,.4.34l.67.47.56.4.31.22a4.35,4.35,0,0,0,2.3,1,3,3,0,0,0,1.59-.27,1.8,1.8,0,0,0,.67-.63l.1-.16a1.81,1.81,0,0,0,.13-.36,2.28,2.28,0,0,0-.17-1.48,2.47,2.47,0,0,0-.46-.62,1.69,1.69,0,0,0-.46-.33c-.09,0-.24-.11-.27-.19a.17.17,0,0,1,0-.17,2.85,2.85,0,0,0,.23-.42,2.3,2.3,0,0,0,.07-1.48c0-.06,0-.11-.06-.17a2.56,2.56,0,0,0-.17-.34,1.76,1.76,0,0,0-1.66-.92,2.81,2.81,0,0,0-1.36.49,4.19,4.19,0,0,0-1.59,2.08c-.06.14-.13.27-.19.42l-.13.27-.51,1.2A.71.71,0,0,0,65.54,248.36Zm12.73-3,.11.29.51,1.2c.07.16.14.43.41.49a1.31,1.31,0,0,0,.53-.06l.8-.17.69-.13.39-.09a4.37,4.37,0,0,0,2.29-1,2.93,2.93,0,0,0,.89-1.35,1.8,1.8,0,0,0,0-.92c0-.06,0-.1,0-.17a2.57,2.57,0,0,0-.17-.34,2.35,2.35,0,0,0-1.19-.89,2.28,2.28,0,0,0-.76-.09,1.82,1.82,0,0,0-.56.1c-.09,0-.26.1-.33.07s-.09-.11-.1-.16a2.68,2.68,0,0,0-.14-.44,2.18,2.18,0,0,0-1-1.06l-.16-.07a2.52,2.52,0,0,0-.36-.11,1.75,1.75,0,0,0-1.21.11,1.82,1.82,0,0,0-.6.46,2.94,2.94,0,0,0-.59,1.32,4.21,4.21,0,0,0,.41,2.6C78.16,245.11,78.21,245.25,78.27,245.39Zm-29.9,10.1a1.2,1.2,0,0,0,.39-.06,2.34,2.34,0,0,0,1.23-.85,2.18,2.18,0,0,0,.33-.69,1.9,1.9,0,0,0,.09-.56c0-.09,0-.27,0-.33s.13,0,.17,0,.31,0,.47,0a2.28,2.28,0,0,0,1.33-.62l.11-.13a3.37,3.37,0,0,0,.23-.3,1.83,1.83,0,0,0,.29-1.19,1.94,1.94,0,0,0-.24-.72,2.84,2.84,0,0,0-1.06-1,4.1,4.1,0,0,0-2.57-.44l-.46,0h-.3l-1.3.1c-.17,0-.46,0-.6.24a1.13,1.13,0,0,0-.11.52c0,.27-.07.55-.1.82s-.07.46-.1.69l0,.39a4.41,4.41,0,0,0,.2,2.5,2.87,2.87,0,0,0,1,1.28,1.7,1.7,0,0,0,.87.3A.4.4,0,0,0,48.37,255.49Zm7.29-11.4.27.24.19.17.81.7c.11.09.26.26.49.22a1.08,1.08,0,0,0,.37-.23l.54-.42.46-.34.26-.2a3.54,3.54,0,0,0,1.34-1.55,2.48,2.48,0,0,0,.19-1.32,1.63,1.63,0,0,0-.31-.69.72.72,0,0,0-.1-.11l-.26-.2a2,2,0,0,0-1.2-.24,1.89,1.89,0,0,0-.59.2,1.77,1.77,0,0,0-.37.27.75.75,0,0,1-.21.17c-.06,0-.1-.06-.13-.07a1.56,1.56,0,0,0-.26-.27A1.84,1.84,0,0,0,56,240h-.14a1.67,1.67,0,0,0-.3,0,1.43,1.43,0,0,0-.86.52,1.46,1.46,0,0,0-.27.56,2.5,2.5,0,0,0,0,1.18A3.12,3.12,0,0,0,55.66,244.09Zm7.46,11.32.26.07,1.13.3a.59.59,0,0,0,.57,0,1.37,1.37,0,0,0,.26-.4c.11-.22.21-.44.33-.66l.29-.56.14-.32a4,4,0,0,0,.56-2.18,2.77,2.77,0,0,0-.46-1.38,1.6,1.6,0,0,0-.64-.52.4.4,0,0,0-.16-.06,2.41,2.41,0,0,0-.34-.07,2.15,2.15,0,0,0-1.29.36,2.24,2.24,0,0,0-.49.49,1.38,1.38,0,0,0-.23.46c0,.07-.07.23-.13.27a.19.19,0,0,1-.16,0,3.28,3.28,0,0,0-.4-.14,2,2,0,0,0-1.31.14l-.14.07a2.88,2.88,0,0,0-.27.19,1.61,1.61,0,0,0-.59.93,1.78,1.78,0,0,0,0,.67,2.63,2.63,0,0,0,.61,1.13,3.61,3.61,0,0,0,2.06,1.12Zm-3.43-10.69c-.11.1-.33.24-.31.49a1.22,1.22,0,0,0,.19.44c.11.22.23.44.36.66s.2.37.29.56l.17.32a4.06,4.06,0,0,0,1.46,1.74,2.74,2.74,0,0,0,1.4.43,1.66,1.66,0,0,0,.8-.23l.14-.09a1.37,1.37,0,0,0,.26-.24,2,2,0,0,0,.34-1.94,1.42,1.42,0,0,0-.24-.46.62.62,0,0,1-.14-.27.31.31,0,0,1,.1-.13,1.87,1.87,0,0,0,.34-.24,2,2,0,0,0,.66-1.16c0-.06,0-.1,0-.16a1.38,1.38,0,0,0,0-.34,1.53,1.53,0,0,0-.41-1,1.79,1.79,0,0,0-.56-.4,2.53,2.53,0,0,0-1.29-.16,3.78,3.78,0,0,0-2.13,1l-.31.26-.21.17ZM61.59,261l.14.26c.21.37.44.73.66,1.1.09.14.2.4.47.42a1.3,1.3,0,0,0,.51-.13l.76-.27.64-.22.36-.13a4.25,4.25,0,0,0,2.09-1.28,3,3,0,0,0,.69-1.43,1.71,1.71,0,0,0-.11-.89.76.76,0,0,0-.07-.16,2.44,2.44,0,0,0-.21-.32,2.3,2.3,0,0,0-1.27-.7,2.15,2.15,0,0,0-.74,0,1.76,1.76,0,0,0-.53.17.65.65,0,0,1-.31.11c-.07,0-.1-.1-.11-.13a3.72,3.72,0,0,0-.2-.42,2.15,2.15,0,0,0-1.13-.89l-.17,0a2,2,0,0,0-.36-.06,1.68,1.68,0,0,0-1.16.29,1.82,1.82,0,0,0-.51.53,2.86,2.86,0,0,0-.39,1.36,4.11,4.11,0,0,0,.76,2.45A3.62,3.62,0,0,1,61.59,261Z" transform="translate(-46.07 -239.99)" style="fill:url(#linear-gradient)"/><path d="M104.86,275.41a1.33,1.33,0,0,0,1.07.55h0a1.28,1.28,0,0,0,1-.55l14.74-34.75-.67-.25a7.1,7.1,0,0,0-2.44-.41,6.47,6.47,0,0,0-2,.3l-.33.12-.17.36c-3.28,8.25-8.5,21.11-10.14,24.5-1.08-2.26-3.65-8.73-5.77-14.1-1.47-3.72-3-7.57-4.17-10.41l-.17-.35-.25-.09a9.48,9.48,0,0,0-2.5-.34,5.28,5.28,0,0,0-2.09.41l-.63.25" transform="translate(-46.07 -239.99)" style="fill:#510d77"/><path d="M125.63,275.57h2.92a.64.64,0,0,0,.28,0c.48-.17.74-.72.74-1.48v-8.29a31.12,31.12,0,0,1,.41-6.36,7.92,7.92,0,0,1,1.44-2.84,7.5,7.5,0,0,1,2.49-2.08,6.52,6.52,0,0,1,3-.74,5.67,5.67,0,0,1,2.67.58,4.18,4.18,0,0,1,1.7,1.65,6.74,6.74,0,0,1,.84,2.41,38.79,38.79,0,0,1,.2,4.75v10.69c0,.06,0,.15,0,.21s0,.21,0,.23c.15.79.51,1.2,1.18,1.31h2.59a1.17,1.17,0,0,0,1-.53,2.41,2.41,0,0,0,.26-1.17V262.23c0-3.48-.37-6-1.14-7.73a9.22,9.22,0,0,0-3.5-4.1,9.49,9.49,0,0,0-5.19-1.49,11.27,11.27,0,0,0-8,3.34V240.43l-.48-.14a7.31,7.31,0,0,0-2-.29,7.64,7.64,0,0,0-2.14.29l-.48.14v33.7a2,2,0,0,0,.2.78,1.29,1.29,0,0,0,.39.46,1.32,1.32,0,0,0,.53.2Z" transform="translate(-46.07 -239.99)" style="fill:#510d77"/><path d="M152.77,241.18a3.54,3.54,0,1,0,5.27,4.71,3.38,3.38,0,0,0,.87-2.57,3.46,3.46,0,0,0-1.16-2.42,3.43,3.43,0,0,0-2.52-.89,3.38,3.38,0,0,0-2.46,1.17Z" transform="translate(-46.07 -239.99)" style="fill:#c40d3c"/><path d="M157.95,250.23v-1.31a3.52,3.52,0,0,1-5.07,0v25.15a2.25,2.25,0,0,0,.18.93,1,1,0,0,0,1,.56h2.55a1.25,1.25,0,0,0,1.19-.55,1.54,1.54,0,0,0,.18-.86V250.23Z" transform="translate(-46.07 -239.99)" style="fill:#510d77"/></g></svg>