<svg id="Layer_1" data-name="Layer 1" xmlns="http://www.w3.org/2000/svg" viewBox="0 0 340.35 68.13"><title>Watsons logo - Brandlogos.net</title><path d="M254.07,349.93c-23.35,0-40.25,12.9-40.25,41.71v18.9h326c8.91-6.61,14.36-17.82,14.36-34.18V349.93Z" transform="translate(-213.83 -349.93)" style="fill:#0099a8"/><path d="M514,418.07c10.14,0,19-2.46,25.89-7.53h-326v7.53Z" transform="translate(-213.83 -349.93)" style="fill:#d12412"/><path d="M339.26,395.25c0,1.77.23,2.46,1,3.23a3.24,3.24,0,0,0,2.53,1c2,0,3.3-1.69,3.3-4.3V383.65c0-10.06-6.61-16.13-17.59-16.13-10.06,0-17.44,6.68-17.44,15.9s7.14,16.05,16.67,16.05a15.71,15.71,0,0,0,11.37-4.53Zm-10.91-2c-6.3,0-10.68-3.92-10.68-9.52v-.15c0-5.61,4.38-9.6,10.68-9.6,7.07,0,11.14,3.46,11.14,9.52,0,5.84-4.61,9.76-11.14,9.76m49.08-.84c-2.23,0-3.61,1.15-3.61,3.07,0,1.69,1.08,2.84,3,3.23a68.25,68.25,0,0,0,11.6.69c4.61,0,8.07-.92,10.45-2.84A8.26,8.26,0,0,0,402,389.8c0-5.38-4.07-8.07-14-9.29-6.07-.77-7.45-1.38-7.45-3.46,0-1.46.84-2.77,7-2.77,3.46,0,6.3.23,8.76.23,2.23,0,3.61-1.23,3.61-3.07s-1.61-3.07-4.53-3.3h-.08c-2.07-.15-8.3-.23-8.91-.23-7.83,0-12.37,3.38-12.37,9.29,0,5.76,3.76,8.6,12.44,9.45,4.92.46,9,1.08,9,3.23S393,393,387.57,393c-4.38.08-8.22-.54-10.14-.61m82.88-18.13c5.91,0,8.76,2.61,8.76,7.91v13.13c0,2.61,1.38,4.22,3.46,4.22,1.69,0,3.46-1.31,3.46-4.3v-14c0-8.14-6.14-13.37-15.59-13.37-9.6,0-15.82,5.22-15.82,13.37v14.06c0,2.61,1.38,4.22,3.46,4.22,1.69,0,3.46-1.31,3.46-4.3V382.19c0-5.3,2.92-7.91,8.83-7.91M354.7,362.92c-2.15,0-3.46,1.69-3.46,4.22v22.28c0,6.53,3.84,9.91,11.14,9.91a15.9,15.9,0,0,0,3.84-.38c2.38-.54,3.61-1.61,3.61-3.23s-1-3.23-3.76-3.07c-.31,0-2.77.23-3.61.23-3.69.08-4.46-1.84-4.46-4.76V375.44h7.14c2.69,0,4.15-1.08,4.15-3.15s-1.54-3.07-4.15-3.07H358v-2c.08-2.61-1.23-4.3-3.3-4.3m68,4.84c-10.06,0-17.44,6.68-17.44,15.9s7.3,15.9,17.44,15.9S440,392.87,440,383.65s-7.3-15.9-17.36-15.9m0,25.42c-6.3,0-10.75-3.92-10.75-9.6s4.46-9.6,10.75-9.6,10.75,3.92,10.75,9.6-4.46,9.6-10.75,9.6M283,383.19l4.46,11.52a7.46,7.46,0,0,0,7.07,4.92,7.26,7.26,0,0,0,7.07-5.15l6.91-22.35a3.43,3.43,0,1,0-6.45-2.3c0,.08-.08.15-.08.31l-6.84,22.12a.83.83,0,0,1-.61.61.73.73,0,0,1-.61-.54l-5.76-14.82c-.84-2.23-1.92-5.07-5.15-5.07s-4.3,2.77-5.15,5.07l-5.76,14.82c-.15.38-.38.54-.61.54s-.54-.31-.61-.61l-6.84-22.12a3.46,3.46,0,1,0-6.68,1.77c0,.08.08.15.08.31l6.91,22.35a7.26,7.26,0,0,0,7.07,5.15,7.57,7.57,0,0,0,7.07-4.92ZM493.72,393c5.53,0,7.91-1,7.91-3.15s-4.07-2.77-9-3.23c-8.76-.84-12.44-3.69-12.44-9.45,0-5.91,4.53-9.29,12.37-9.29.69,0,6.84.15,8.91.23h.08c3,.23,4.53,1.38,4.53,3.3s-1.46,3.07-3.61,3.07c-2.46,0-5.22-.23-8.76-.23-6.14,0-7,1.31-7,2.77,0,2.07,1.38,2.69,7.45,3.46,10,1.23,14,3.92,14,9.29a8.26,8.26,0,0,1-3.15,6.76c-2.38,1.84-5.84,2.84-10.45,2.84a68.25,68.25,0,0,1-11.6-.69c-1.84-.38-3-1.54-3-3.23,0-1.84,1.38-3.07,3.61-3.07,2,0,5.76.61,10.14.61" transform="translate(-213.83 -349.93)" style="fill:#fff"/></svg>